<svg xmlns="http://www.w3.org/2000/svg" width="568" height="567" viewBox="0 0 568 567" version="1.1">
	<path d="M 263 54.011 C 231.944 57.254, 204.517 65.372, 178 79.169 C 112.496 113.252, 67.932 175.848, 56.380 250 C 53.881 266.041, 53.881 300.959, 56.380 317 C 65.899 378.101, 97.566 431.221, 146.319 467.864 C 194.496 504.074, 256.203 519.900, 316.500 511.509 C 391.561 501.064, 456.574 454.261, 490.456 386.280 C 507.030 353.026, 514.359 321.513, 514.359 283.500 C 514.359 260.768, 512.740 247.282, 507.518 226.500 C 485.020 136.977, 410.187 69.476, 318 55.551 C 305.348 53.640, 274.756 52.784, 263 54.011 M 213.532 128.228 C 213.300 128.928, 204.734 159.200, 194.496 195.500 C 184.257 231.800, 175.652 262.288, 175.373 263.250 C 174.909 264.850, 175.926 265, 187.196 265 L 199.526 265 204.279 246.750 C 218.436 192.388, 224.671 167.609, 228.494 150.513 L 232.739 131.526 233.967 139.013 C 237.266 159.141, 261.125 262.427, 262.902 264.273 C 263.311 264.698, 272.114 264.923, 282.464 264.773 L 301.282 264.500 309.117 232 C 318.662 192.409, 326.312 158.566, 328.445 146.500 C 329.319 141.550, 330.299 136.375, 330.622 135 C 331.023 133.295, 332.573 138.542, 335.498 151.500 C 340.441 173.400, 343.863 187.070, 355.562 231.657 C 360.203 249.343, 364 264.081, 364 264.407 C 364 264.733, 369.673 265, 376.607 265 C 386.517 265, 389.108 264.723, 388.717 263.705 C 388.444 262.992, 379.819 232.730, 369.552 196.455 C 359.284 160.180, 350.654 129.713, 350.374 128.750 C 349.912 127.162, 348.087 127, 330.600 127 L 311.334 127 297.113 191.250 C 289.291 226.588, 282.642 256.175, 282.336 257 C 282.030 257.825, 275.179 229.025, 267.111 193 L 252.441 127.500 233.198 127.228 C 218.323 127.018, 213.858 127.245, 213.532 128.228 M 175 283.500 C 175 293.307, 176.757 295.102, 177.202 285.750 L 177.500 279.500 179.886 285.788 C 181.198 289.246, 182.733 291.922, 183.295 291.735 C 183.858 291.547, 185.259 288.943, 186.409 285.947 L 188.500 280.500 188.800 286.250 C 189.269 295.237, 191 293.008, 191 283.417 C 191 272.979, 189.853 272.778, 185.985 282.537 L 183.231 289.488 181.768 285.988 C 180.964 284.062, 179.697 280.803, 178.952 278.744 C 176.562 272.134, 175 274.013, 175 283.500 M 200 283.500 L 200 292 205.750 291.820 C 211.436 291.641, 211.448 291.635, 206.750 291.265 C 202.092 290.898, 202 290.825, 202 287.503 C 202 284.244, 202.162 284.100, 206.250 283.732 L 210.500 283.349 206.250 283.175 C 202.106 283.004, 202 282.914, 202 279.555 C 202 276.164, 202.075 276.104, 206.750 275.735 C 211.448 275.365, 211.436 275.359, 205.750 275.180 L 200 275 200 283.500 M 218.711 275.720 L 221.921 276.121 222.257 284.310 L 222.593 292.500 222.796 284.313 L 223 276.127 226.250 275.723 C 228.037 275.502, 226.350 275.320, 222.500 275.320 C 218.650 275.320, 216.945 275.500, 218.711 275.720 M 237.421 279.750 C 236.461 282.363, 235.074 286.017, 234.338 287.872 C 232.746 291.883, 232.735 292, 233.933 292 C 234.446 292, 235.151 291.100, 235.500 290 C 235.991 288.454, 237.013 288, 240 288 C 242.987 288, 244.009 288.454, 244.500 290 C 245.031 291.673, 247 292.922, 247 291.585 C 247 290.016, 240.658 275, 239.995 275 C 239.539 275, 238.380 277.137, 237.421 279.750 M 253 283.500 L 253 292 258.750 291.820 C 264.436 291.641, 264.448 291.635, 259.750 291.265 L 255 290.890 255 282.945 C 255 278.315, 254.583 275, 254 275 C 253.412 275, 253 278.500, 253 283.500 M 269.320 277.250 C 269.615 278.488, 270.400 282.329, 271.066 285.788 C 271.731 289.246, 272.722 291.926, 273.269 291.744 C 273.815 291.562, 275.155 288.507, 276.246 284.956 L 278.231 278.500 280.218 285 C 282.366 292.026, 282.682 292.652, 283.613 291.721 C 284.359 290.975, 286.922 279.283, 286.950 276.500 C 286.986 272.866, 285.187 277.006, 284.472 282.202 C 284.109 284.841, 283.462 287, 283.034 287 C 282.606 287, 281.607 284.665, 280.813 281.812 C 280.019 278.958, 278.905 276.468, 278.338 276.279 C 277.770 276.090, 276.415 278.987, 275.327 282.718 L 273.347 289.500 272.013 282.250 C 271.280 278.262, 270.253 275, 269.731 275 C 269.210 275, 269.025 276.012, 269.320 277.250 M 295.651 283.071 C 292.940 290.747, 292.562 294.556, 294.954 290.086 C 295.753 288.594, 297.047 288, 299.500 288 C 301.953 288, 303.247 288.594, 304.046 290.086 C 304.660 291.233, 305.407 291.927, 305.706 291.628 C 306.545 290.788, 300.668 275, 299.517 275.003 C 298.958 275.004, 297.218 278.635, 295.651 283.071 M 313 283.500 C 313 288.500, 313.412 292, 314 292 C 314.588 292, 315 288.500, 315 283.500 C 315 278.500, 314.588 275, 314 275 C 313.412 275, 313 278.500, 313 283.500 M 323 283.500 L 323 292 328.750 291.820 C 334.436 291.641, 334.448 291.635, 329.750 291.265 L 325 290.890 325 282.945 C 325 278.315, 324.583 275, 324 275 C 323.412 275, 323 278.500, 323 283.500 M 340 283.500 L 340 292 346.250 291.815 L 352.500 291.630 347.250 291.263 C 342.021 290.897, 342 290.882, 342 287.505 C 342 284.243, 342.161 284.100, 346.250 283.732 L 350.500 283.349 346.250 283.175 C 342.106 283.004, 342 282.914, 342 279.552 C 342 276.106, 342.003 276.104, 347.250 275.737 L 352.500 275.370 346.250 275.185 L 340 275 340 283.500 M 359 283.500 C 359 288.500, 359.412 292, 360 292 C 360.550 292, 361 290.425, 361 288.500 C 361 285.438, 361.311 285, 363.487 285 C 365.383 285, 366.320 285.830, 367.436 288.500 C 368.240 290.425, 369.348 292, 369.898 292 C 370.474 292, 370.271 290.500, 369.418 288.459 C 368.103 285.312, 368.109 284.748, 369.469 283.388 C 371.299 281.558, 371.469 277.869, 369.800 276.200 C 369.140 275.540, 366.440 275, 363.800 275 L 359 275 359 283.500 M 379.046 276.445 C 377.513 278.292, 378.054 282.060, 380 283.088 C 380.825 283.524, 382.757 284.146, 384.293 284.470 C 387.835 285.218, 388.939 287.840, 386.471 289.645 C 383.908 291.519, 382.345 291.345, 379.917 288.917 C 377.304 286.304, 376.029 287.270, 378.494 289.994 C 381.799 293.645, 390 291.633, 390 287.171 C 390 284.989, 386.015 282, 383.107 282 C 381.483 282, 379.966 281.355, 379.649 280.529 C 379.091 279.073, 381.357 276, 382.990 276 C 384.976 276, 387 277.316, 387 278.607 C 387 279.373, 387.450 280, 388 280 C 389.486 280, 389.212 278.354, 387.429 276.571 C 385.460 274.602, 380.635 274.530, 379.046 276.445 M 361 280 C 361 283.564, 361.264 284, 363.418 284 C 367.520 284, 369 282.940, 369 280 C 369 277.060, 367.520 276, 363.418 276 C 361.264 276, 361 276.436, 361 280 M 238.613 281.407 C 238.280 282.731, 237.733 284.531, 237.397 285.407 C 236.916 286.661, 237.471 287, 240 287 C 242.529 287, 243.084 286.661, 242.603 285.407 C 242.267 284.531, 241.720 282.731, 241.387 281.407 C 241.055 280.083, 240.431 279, 240 279 C 239.569 279, 238.945 280.083, 238.613 281.407 M 297.736 282.989 L 296.161 287 299.529 287 L 302.898 287 301.344 283.250 C 300.489 281.188, 299.682 279.383, 299.551 279.239 C 299.419 279.096, 298.603 280.783, 297.736 282.989 M 175.381 303.750 C 175.665 304.712, 183.591 332.725, 192.993 366 C 202.396 399.275, 210.991 429.547, 212.093 433.271 L 214.097 440.043 233.260 439.771 L 252.422 439.500 266.961 374.306 C 274.957 338.450, 281.761 309.425, 282.079 309.806 C 282.398 310.188, 289.126 339.637, 297.031 375.250 L 311.403 440 330.663 440 L 349.923 440 351.056 435.750 C 351.679 433.413, 359.599 405.400, 368.657 373.500 C 377.714 341.600, 385.968 312.462, 386.999 308.750 L 388.873 302 376.592 302 L 364.311 302 359.069 321.750 C 350.483 354.097, 336.306 410.666, 333.695 423 C 332.005 430.982, 331.090 433.735, 330.702 432 C 330.395 430.625, 328.305 420.275, 326.058 409 C 323.811 397.725, 317.331 369.150, 311.659 345.500 L 301.346 302.500 281.923 302.232 L 262.500 301.964 251.713 347.232 C 241.095 391.790, 236.385 413.226, 233.966 427.987 L 232.739 435.474 228.493 416.487 C 224.697 399.510, 216.187 365.701, 203.766 318.250 L 199.513 302 187.189 302 C 175.922 302, 174.909 302.150, 175.381 303.750" stroke="none" fill="#FFFFFF" fill-rule="evenodd"/>
</svg>